<svg width="1103" height="367" viewBox="0 0 1103 367" fill="none" xmlns="http://www.w3.org/2000/svg">
<ellipse cx="63" cy="262.5" rx="63" ry="60.5" fill="#FFDD00"/>
<rect x="168" y="46.9184" width="93.8367" height="346.246" rx="46.9184" transform="rotate(-30 168 46.9184)" fill="#00CED1"/>
<rect x="34" y="46.9184" width="93.8367" height="346.246" rx="46.9184" transform="rotate(-30 34 46.9184)" fill="#00CED1"/>
<path d="M429.812 278.656C429.812 265.635 436.03 256.195 448.465 250.336C460.9 244.477 475.092 241.352 491.043 240.961V237.055C491.043 231.065 489.546 226.833 486.551 224.359C483.556 221.885 479.389 220.648 474.051 220.648C470.275 220.648 466.922 221.202 463.992 222.309C461.128 223.35 458.621 224.587 456.473 226.02C454.389 227.387 452.501 228.786 450.809 230.219C447.814 232.823 445.34 232.953 443.387 230.609L435.281 220.648C433.263 218.174 433.751 215.635 436.746 213.031C439.025 211.013 441.661 209.255 444.656 207.758C447.716 206.26 451.753 204.861 456.766 203.559C461.779 202.191 468.289 201.508 476.297 201.508C489.839 201.508 500.223 204.633 507.449 210.883C514.741 217.133 518.387 226.345 518.387 238.52V300.141C518.387 304.047 516.434 306 512.527 306H496.512C492.996 306 491.238 304.047 491.238 300.141V297.211H491.043C487.202 300.922 482.579 303.656 477.176 305.414C471.837 307.107 466.922 307.953 462.43 307.953C451.753 307.953 443.647 305.349 438.113 300.141C432.579 294.867 429.812 287.706 429.812 278.656ZM458.719 278.07C458.719 280.349 459.174 282.335 460.086 284.027C460.997 285.655 462.43 286.859 464.383 287.641C466.336 288.422 468.517 288.812 470.926 288.812C474.246 288.812 477.469 288.357 480.594 287.445C483.719 286.534 487.202 284.385 491.043 281V259.809C480.105 261.046 472.781 262.641 469.07 264.594C465.359 266.547 462.69 268.565 461.062 270.648C459.5 272.732 458.719 275.206 458.719 278.07ZM542.996 299.164C539.806 296.885 538.927 294.444 540.359 291.84L545.34 282.758C547.098 279.503 549.832 279.112 553.543 281.586C557.254 284.06 561.616 285.883 566.629 287.055C571.707 288.227 576.329 288.812 580.496 288.812C583.426 288.812 586.16 288.52 588.699 287.934C591.238 287.348 593.387 286.208 595.145 284.516C596.902 282.823 597.781 280.349 597.781 277.094C597.781 275.141 597.26 273.48 596.219 272.113C595.177 270.746 593.842 269.704 592.215 268.988C590.587 268.272 588.862 267.686 587.039 267.23C584.63 266.645 581.147 265.668 576.59 264.301C572.098 262.934 567.768 261.339 563.602 259.516C560.151 258.018 556.766 255.935 553.445 253.266C550.19 250.531 547.781 247.504 546.219 244.184C544.721 240.863 543.973 236.762 543.973 231.879C543.973 225.303 545.861 219.542 549.637 214.594C553.478 209.646 558.426 206.228 564.48 204.34C570.535 202.452 578.087 201.508 587.137 201.508C593.257 201.508 599.214 202.387 605.008 204.145C610.802 205.902 614.936 207.562 617.41 209.125C621.316 211.599 622.293 214.236 620.34 217.035L614.383 225.727C612.56 228.331 609.63 228.526 605.594 226.312C602.534 224.62 599.507 223.253 596.512 222.211C593.582 221.169 590.294 220.648 586.648 220.648C584.174 220.648 581.798 220.909 579.52 221.43C577.241 221.951 575.288 222.927 573.66 224.359C572.098 225.792 571.316 227.68 571.316 230.023C571.316 232.497 572.033 234.451 573.465 235.883C574.962 237.25 576.655 238.259 578.543 238.91C580.496 239.561 582.352 240.18 584.109 240.766C587.755 241.938 591.434 243.077 595.145 244.184C598.855 245.225 602.632 246.495 606.473 247.992C609.793 249.294 613.016 251.15 616.141 253.559C619.266 255.967 621.544 259.027 622.977 262.738C624.409 266.449 625.125 270.681 625.125 275.434C625.125 281.749 623.237 287.608 619.461 293.012C615.685 298.415 610.704 302.257 604.52 304.535C598.335 306.814 591.141 307.953 582.938 307.953C573.758 307.953 565.945 307.302 559.5 306C553.055 304.698 547.553 302.419 542.996 299.164ZM649.148 306C645.242 306 643.289 304.047 643.289 300.141V184.809C643.289 181.879 643.973 179.21 645.34 176.801L652.859 163.617C654.292 161.143 655.984 159.906 657.938 159.906H664.773C668.68 159.906 670.633 161.859 670.633 165.766V300.141C670.633 304.047 668.68 306 664.773 306H649.148ZM691.727 254.73C691.727 238.129 695.991 225.108 704.52 215.668C713.113 206.228 725.874 201.508 742.801 201.508C759.728 201.508 772.456 206.228 780.984 215.668C789.578 225.108 793.875 238.129 793.875 254.73C793.875 271.332 789.578 284.353 780.984 293.793C772.456 303.233 759.728 307.953 742.801 307.953C725.874 307.953 713.113 303.233 704.52 293.793C695.991 284.353 691.727 271.332 691.727 254.73ZM720.633 254.73C720.633 267.1 722.521 275.889 726.297 281.098C730.138 286.241 735.639 288.812 742.801 288.812C749.962 288.812 755.431 286.241 759.207 281.098C763.048 275.889 764.969 267.1 764.969 254.73C764.969 242.361 763.048 233.604 759.207 228.461C755.431 223.253 749.962 220.648 742.801 220.648C735.639 220.648 730.138 223.253 726.297 228.461C722.521 233.604 720.633 242.361 720.633 254.73ZM809.5 254.73C809.5 240.408 812.592 227.973 818.777 217.426C825.027 206.814 835.802 201.508 851.102 201.508C856.961 201.508 861.974 202.354 866.141 204.047C870.307 205.74 874.083 209.385 877.469 214.984H877.859L878.25 209.32C878.51 205.414 880.268 203.461 883.523 203.461H898.953C902.859 203.461 904.812 205.414 904.812 209.32V304.926C904.812 320.876 900.516 331.879 891.922 337.934C883.328 343.988 870.893 347.016 854.617 347.016C847.716 347.016 841.336 346.658 835.477 345.941C829.617 345.225 823.693 343.435 817.703 340.57C814.578 339.073 814.057 336.241 816.141 332.074L819.656 325.043C821.089 322.178 823.465 321.527 826.785 323.09C829.454 324.327 832.742 325.434 836.648 326.41C840.62 327.387 845.633 327.875 851.688 327.875C860.021 327.875 866.401 326.312 870.828 323.188C875.255 320.128 877.469 313.389 877.469 302.973V301.312C877.469 298.708 877.599 296.104 877.859 293.5H877.469C874.083 299.099 870.307 302.745 866.141 304.438C861.974 306.13 856.961 306.977 851.102 306.977C835.802 306.977 825.027 301.703 818.777 291.156C812.592 280.544 809.5 268.402 809.5 254.73ZM838.406 254.73C838.406 264.496 839.741 272.471 842.41 278.656C845.145 284.776 850.906 287.836 859.695 287.836C864.578 287.836 868.745 285.102 872.195 279.633C875.711 274.099 877.469 266.938 877.469 258.148V250.336C877.469 241.547 875.711 234.418 872.195 228.949C868.745 223.415 864.578 220.648 859.695 220.648C850.906 220.648 845.145 223.741 842.41 229.926C839.741 236.046 838.406 244.314 838.406 254.73Z" fill="url(#paint0_linear_52_17)"/>
<defs>
<linearGradient id="paint0_linear_52_17" x1="533" y1="132" x2="857.5" y2="322.5" gradientUnits="userSpaceOnUse">
<stop stop-color="#FF6347"/>
<stop offset="0.5" stop-color="#FFDD00"/>
<stop offset="0.75" stop-color="#00CED1"/>
<stop offset="1" stop-color="#32CD32"/>
</linearGradient>
</defs>
</svg>
