<svg width="160" height="180" viewBox="0 0 160 180" fill="none" xmlns="http://www.w3.org/2000/svg">
<rect y="166.548" width="6.6876" height="160" transform="rotate(-90 0 166.548)" fill="#FFDD00"/>
<rect y="145.768" width="6.6876" height="160" transform="rotate(-90 0 145.768)" fill="#FFDD00"/>
<rect y="124.989" width="6.6876" height="160" transform="rotate(-90 0 124.989)" fill="#FFDD00"/>
<rect y="104.21" width="6.6876" height="160" transform="rotate(-90 0 104.21)" fill="#FFDD00"/>
<rect y="83.4303" width="6.6876" height="160" transform="rotate(-90 0 83.4303)" fill="#FFDD00"/>
<rect y="62.651" width="6.6876" height="160" transform="rotate(-90 0 62.651)" fill="#FFDD00"/>
<rect y="41.8717" width="6.6876" height="160" transform="rotate(-90 0 41.8717)" fill="#FFDD00"/>
<rect y="21.0923" width="6.6876" height="160" transform="rotate(-90 0 21.0923)" fill="#FFDD00"/>
<rect x="12.3809" width="5.94453" height="180" fill="#FFDD00"/>
<rect x="30.8516" width="5.94453" height="180" fill="#FFDD00"/>
<rect x="49.322" width="5.94453" height="180" fill="#FFDD00"/>
<rect x="67.7925" width="5.94453" height="180" fill="#FFDD00"/>
<rect x="86.2629" width="5.94453" height="180" fill="#FFDD00"/>
<rect x="104.733" width="5.94453" height="180" fill="#FFDD00"/>
<rect x="123.204" width="5.94453" height="180" fill="#FFDD00"/>
<rect x="141.675" width="5.94453" height="180" fill="#FFDD00"/>
</svg>
